# xmcd
#
# Track frame offsets:
#	150
#	17898
#	41568
#	67776
#
# Disc length: 1123 seconds
#
# Revision: 0
# Processed by: cddbd v1.5.2PL0 Copyright (c) Steve Scherf et al.
# Submitted via: EasyCDDAExtractor 16.0.9.1
#
DISCID=29046104
DTITLE=Carrie Ann - Dancing With Tears In My Eyes 
DYEAR=1997
DGENRE=Pop
TTITLE0=Dancing With Tears In My Eyes (Radio Edit)
TTITLE1=Dancing With Tears In My Eyes (Full Length Version)
TTITLE2=Dancing With Tears In My Eyes (N. Y. Queens Mix)
TTITLE3=I'm Driving
EXTD=
EXTT0=
EXTT1=
EXTT2=
EXTT3=
PLAYORDER=
